<svg xmlns="http://www.w3.org/2000/svg" viewBox="0 0 900 500"><defs><linearGradient id="g" x1="0" x2="1"><stop stop-color="#06140d"/><stop offset="1" stop-color="#0b3b25"/></linearGradient><pattern id="p" width="28" height="28" patternUnits="userSpaceOnUse"><path d="M28 0H0V28" fill="none" stroke="#00e676" stroke-opacity=".08"/></pattern></defs><rect width="900" height="500" fill="url(#g)"/><rect width="900" height="500" fill="url(#p)"/><circle cx="720" cy="120" r="170" fill="#00e676" opacity=".06"/><path d="M450 90l155 55v105c0 100-67 169-155 208-88-39-155-108-155-208V145z" fill="#071b11" stroke="#00e676" stroke-width="9"/><path d="M450 135l105 38v77c0 65-41 116-105 151-64-35-105-86-105-151v-77z" fill="#00c853" opacity=".13"/><path d="M390 260l42 42 85-96" fill="none" stroke="#7dffbd" stroke-width="17" stroke-linecap="round" stroke-linejoin="round"/><g fill="#00e676" opacity=".75"><circle cx="130" cy="120" r="5"/><circle cx="175" cy="170" r="4"/><circle cx="100" cy="220" r="4"/><circle cx="770" cy="330" r="5"/><circle cx="820" cy="380" r="4"/></g></svg>